<svg id="box" xmlns="http://www.w3.org/2000/svg" width="96.817" height="103.285" viewBox="0 0 96.817 103.285">
  <path id="Path_159" data-name="Path 159" d="M69.022,9.592,24.446,31.111a1.617,1.617,0,0,0-.914,1.456V85.518a1.617,1.617,0,0,0,.914,1.456l44.576,21.52a3.234,3.234,0,0,0,2.812,0l44.576-21.519a1.617,1.617,0,0,0,.914-1.456V32.568a1.617,1.617,0,0,0-.914-1.456L71.834,9.592A3.234,3.234,0,0,0,69.022,9.592Z" transform="translate(-22.019 -7.4)" fill="#ffe17d"/>
  <path id="Path_160" data-name="Path 160" d="M23.8,120.368a1.61,1.61,0,0,0-.269.885V174.2a1.617,1.617,0,0,0,.914,1.456l44.576,21.52a3.233,3.233,0,0,0,1.406.322V142.878Z" transform="translate(-22.019 -96.086)" fill="#ffc350"/>
  <path id="Path_161" data-name="Path 161" d="M302.627,120.368a1.61,1.61,0,0,1,.269.885V174.2a1.617,1.617,0,0,1-.914,1.456l-44.576,21.52A3.233,3.233,0,0,1,256,197.5V142.878Z" transform="translate(-207.591 -96.086)" fill="#ffd164"/>
  <path id="Path_162" data-name="Path 162" d="M174.843,68.6,128.052,46l-12.334,5.978,46.9,22.64Z" transform="translate(-95.608 -36.721)" fill="#ff8087"/>
  <path id="Path_163" data-name="Path 163" d="M348.185,164.066V181.6a.809.809,0,0,0,1.16.728l10.155-4.9a1.617,1.617,0,0,0,.914-1.456V158.052Z" transform="translate(-281.18 -126.168)" fill="#e6646e"/>
  <path id="Path_164" data-name="Path 164" d="M111.994,22.79,65.1.151a1.514,1.514,0,0,0-1.315,0L16.887,22.79a1.513,1.513,0,0,0-.855,1.362V79.134a1.513,1.513,0,0,0,.855,1.362l46.9,22.639a1.513,1.513,0,0,0,1.316,0l46.9-22.639a1.513,1.513,0,0,0,.855-1.362V24.153A1.514,1.514,0,0,0,111.994,22.79ZM64.441,3.193l43.416,20.959L95.271,30.228a1.5,1.5,0,0,0-.256-.161L51.894,9.25ZM48.477,10.961,91.83,31.89l-8.879,4.287L39.616,15.256Zm36.073,27.8,8.294-4V50.605l-8.294,4Zm-18.6,60.6V47.741L76.418,42.69A1.513,1.513,0,1,0,75.1,39.965L64.441,45.112l-4.2-2.025a1.513,1.513,0,1,0-1.316,2.725l4,1.93V99.362L19.058,78.184V26.563L52.464,42.69a1.513,1.513,0,0,0,1.315-2.725L21.025,24.152,36.055,16.9,81.5,38.837l.021.027V57.02A1.513,1.513,0,0,0,83.7,58.382l11.32-5.465a1.513,1.513,0,0,0,.855-1.362V33.3l13.953-6.736V78.184Z" transform="translate(-16.032 0)"/>
  <path id="Path_165" data-name="Path 165" d="M57.1,344.736l-6.882-3.322a1.513,1.513,0,0,0-1.316,2.725l6.882,3.322a1.513,1.513,0,0,0,1.316-2.725Z" transform="translate(-41.59 -272.42)"/>
  <path id="Path_166" data-name="Path 166" d="M63.473,312.217l-13.206-6.375a1.513,1.513,0,1,0-1.315,2.725l13.206,6.375a1.513,1.513,0,0,0,1.315-2.725Z" transform="translate(-41.628 -244.023)"/>
</svg>
