<svg xmlns="http://www.w3.org/2000/svg" width="124.887" height="125" viewBox="0 0 124.887 125">
  <g id="destination" transform="translate(-0.232)">
    <ellipse id="Ellipse_17" data-name="Ellipse 17" cx="19.833" cy="8.082" rx="19.833" ry="8.082" transform="translate(11.048 107.004)" fill="#ffdb56"/>
    <path id="Path_168" data-name="Path 168" d="M82.469,457.873c-3.1,2.818-10.036,4.783-18.1,4.783s-15.006-1.965-18.1-4.783a4.543,4.543,0,0,0-1.729,3.3c0,4.464,8.879,8.082,19.833,8.082S84.2,465.636,84.2,461.172A4.547,4.547,0,0,0,82.469,457.873Z" transform="translate(-33.485 -346.087)" fill="#ffbb24"/>
    <path id="Path_169" data-name="Path 169" d="M36.555,161.41A28.815,28.815,0,0,0,7.74,190.225c0,24.234,28.815,46.532,28.815,46.532s28.815-22.3,28.815-46.532A28.815,28.815,0,0,0,36.555,161.41Zm0,40.308a11.493,11.493,0,1,1,11.493-11.493A11.493,11.493,0,0,1,36.555,201.718Z" transform="translate(-5.675 -122.003)" fill="#ff4a4a"/>
    <path id="Path_170" data-name="Path 170" d="M115.552,161.41a29.039,29.039,0,0,0-3.3.189,28.818,28.818,0,0,1,25.516,28.626c0,19.13-17.952,37.05-25.516,43.752,2.018,1.788,3.3,2.781,3.3,2.781s28.815-22.3,28.815-46.532A28.815,28.815,0,0,0,115.552,161.41Z" transform="translate(-84.672 -122.003)" fill="#e7343f"/>
    <ellipse id="Ellipse_18" data-name="Ellipse 18" cx="15.243" cy="6.212" rx="15.243" ry="6.212" transform="translate(85.895 53.785)" fill="#ffdb56"/>
    <path id="Path_171" data-name="Path 171" d="M379.266,232.233c-2.7,1.749-7.47,2.912-12.913,2.912s-10.216-1.163-12.913-2.912c-1.474.956-2.33,2.087-2.33,3.3,0,3.431,6.824,6.212,15.243,6.212s15.243-2.781,15.243-6.212C381.6,234.32,380.74,233.189,379.266,232.233Z" transform="translate(-265.214 -175.535)" fill="#ffbb24"/>
    <path id="Path_172" data-name="Path 172" d="M344.981,7.508a22.146,22.146,0,0,0-22.146,22.147c0,18.626,22.146,35.763,22.146,35.763s22.147-17.137,22.147-35.763A22.146,22.146,0,0,0,344.981,7.508Zm0,30.98a8.833,8.833,0,1,1,8.833-8.833A8.833,8.833,0,0,1,344.981,38.488Z" transform="translate(-243.842 -5.675)" fill="#ff4a4a"/>
    <path id="Path_173" data-name="Path 173" d="M403.331,7.508a22.31,22.31,0,0,0-3.3.245,22.151,22.151,0,0,1,18.847,21.9c0,14.092-12.676,27.331-18.847,32.941,1.985,1.8,3.3,2.823,3.3,2.823s22.146-17.137,22.146-35.763A22.146,22.146,0,0,0,403.331,7.508Z" transform="translate(-302.192 -5.675)" fill="#e7343f"/>
    <path id="Path_174" data-name="Path 174" d="M30.88,153.9A30.683,30.683,0,0,0,.232,184.55c0,10.492,4.991,21.774,14.835,33.531,1.463,1.747,2.92,3.365,4.319,4.842-6.356,1.735-10.172,4.852-10.172,8.49,0,6.44,11.163,9.915,21.665,9.915s21.665-3.475,21.665-9.915c0-3.635-3.815-6.753-10.167-8.488a99.783,99.783,0,0,0,7.859-9.346,1.833,1.833,0,1,0-2.951-2.175,98.409,98.409,0,0,1-9.468,10.938,1.833,1.833,0,0,0-.8.793c-2.646,2.6-4.874,4.53-6.137,5.584-1.25-1.044-3.443-2.947-6.055-5.514a1.833,1.833,0,0,0-.919-.913C15.6,213.942,3.9,199.514,3.9,184.551a26.982,26.982,0,0,1,53.964,0c0,6.5-2.214,13.514-6.58,20.855a1.833,1.833,0,1,0,3.151,1.874c4.708-7.916,7.1-15.563,7.1-22.729A30.683,30.683,0,0,0,30.88,153.9Zm0,79.013A1.83,1.83,0,0,0,32,232.532a93.112,93.112,0,0,0,7.371-6.555c6.182,1.261,9.506,3.688,9.506,5.436,0,1.3-1.789,2.845-4.668,4.018a36.543,36.543,0,0,1-13.332,2.232c-10.988,0-18-3.7-18-6.25,0-1.75,3.325-4.176,9.511-5.437a93.258,93.258,0,0,0,7.368,6.556A1.829,1.829,0,0,0,30.88,232.915Z" transform="translate(0 -116.328)"/>
    <path id="Path_175" data-name="Path 175" d="M73.968,233.243A1.834,1.834,0,0,0,71.7,234.5a13.33,13.33,0,1,0,4.838-7,1.833,1.833,0,1,0,2.2,2.936,9.634,9.634,0,1,1-3.509,5.072A1.833,1.833,0,0,0,73.968,233.243Z" transform="translate(-53.63 -169.959)"/>
    <path id="Path_176" data-name="Path 176" d="M356.381,60c0-2.9-2.73-5.323-7.453-6.745.933-1,1.893-2.079,2.857-3.23,7.631-9.115,11.5-17.877,11.5-26.043a23.983,23.983,0,0,0-46.074-9.334,1.833,1.833,0,0,0,3.376,1.428,20.317,20.317,0,0,1,39.032,7.906c0,15.147-15.9,29.659-20.314,33.392-.972-.822-2.5-2.166-4.3-3.925a1.83,1.83,0,0,0-.815-.81c-6.329-6.372-15.2-17.326-15.2-28.657a1.833,1.833,0,0,0-3.666,0c0,8.167,3.87,16.929,11.5,26.043.963,1.15,1.923,2.228,2.855,3.228-4.725,1.42-7.453,3.836-7.453,6.746,0,2.454,1.991,4.617,5.606,6.09a34.628,34.628,0,0,0,22.94,0C354.39,64.614,356.381,62.451,356.381,60Zm-17.076,4.379c-8.677,0-13.41-2.893-13.41-4.379,0-.968,2.153-2.74,6.751-3.718a71.636,71.636,0,0,0,5.538,4.914,1.833,1.833,0,0,0,2.244,0,71.523,71.523,0,0,0,5.537-4.913,16.8,16.8,0,0,1,5.064,1.833c1.055.643,1.686,1.348,1.686,1.885C352.715,61.483,347.982,64.376,339.305,64.376Z" transform="translate(-238.167 0)"/>
    <path id="Path_177" data-name="Path 177" d="M391.189,65.2a10.666,10.666,0,1,0-10.666,10.666A10.678,10.678,0,0,0,391.189,65.2Zm-17.666,0a7,7,0,1,1,7,7A7.008,7.008,0,0,1,373.523,65.2Z" transform="translate(-279.384 -41.218)"/>
    <path id="Path_178" data-name="Path 178" d="M303,241.905a1.833,1.833,0,0,0,0-3.666h-.837a13.826,13.826,0,0,0-1.821.12,1.833,1.833,0,1,0,.484,3.634,10.191,10.191,0,0,1,1.337-.088H303Z" transform="translate(-225.64 -180.075)"/>
    <path id="Path_179" data-name="Path 179" d="M278.165,463.5h-.009l-2.421.011a1.833,1.833,0,0,0,.008,3.666h.009l2.421-.011a1.833,1.833,0,0,0-.008-3.666Z" transform="translate(-206.863 -350.338)"/>
    <path id="Path_180" data-name="Path 180" d="M311.9,339.155a1.833,1.833,0,0,0,0-3.666h-2.421a1.833,1.833,0,1,0,0,3.666Z" transform="translate(-232.359 -253.582)"/>
    <path id="Path_181" data-name="Path 181" d="M266.461,256.251a1.833,1.833,0,0,0,2.558-.42,10.134,10.134,0,0,1,1.355-1.532,1.833,1.833,0,1,0-2.486-2.695,13.78,13.78,0,0,0-1.847,2.088A1.834,1.834,0,0,0,266.461,256.251Z" transform="translate(-200.654 -189.81)"/>
    <path id="Path_182" data-name="Path 182" d="M317.831,463.314h-.009l-2.421.011a1.833,1.833,0,0,0,.008,3.666h.009l2.421-.011a1.833,1.833,0,0,0-.008-3.666Z" transform="translate(-236.845 -350.2)"/>
    <path id="Path_183" data-name="Path 183" d="M238.5,463.675h-.009l-2.421.011a1.833,1.833,0,0,0,.008,3.666h.009l2.421-.011a1.833,1.833,0,0,0-.008-3.666Z" transform="translate(-176.881 -350.473)"/>
    <path id="Path_184" data-name="Path 184" d="M275.257,327.074a1.833,1.833,0,0,0,.98-3.384,10.126,10.126,0,0,1-1.61-1.26,1.833,1.833,0,1,0-2.541,2.642,13.768,13.768,0,0,0,2.2,1.719A1.819,1.819,0,0,0,275.257,327.074Z" transform="translate(-205.058 -243.324)"/>
    <path id="Path_185" data-name="Path 185" d="M260.448,290.249a10.13,10.13,0,0,1-.186-1.932v-.1a1.833,1.833,0,0,0-1.812-1.854h-.022a1.833,1.833,0,0,0-1.832,1.812v.145a13.8,13.8,0,0,0,.253,2.633,1.833,1.833,0,0,0,3.6-.7Z" transform="translate(-193.775 -216.448)"/>
    <path id="Path_186" data-name="Path 186" d="M351.562,339.155a1.833,1.833,0,0,0,0-3.666h-2.421a1.833,1.833,0,1,0,0,3.666Z" transform="translate(-262.34 -253.582)"/>
    <path id="Path_187" data-name="Path 187" d="M468.728,348.657a1.833,1.833,0,0,0,1.137-3.272,17.434,17.434,0,0,0-2.244-1.5,1.833,1.833,0,1,0-1.8,3.194,13.809,13.809,0,0,1,1.772,1.188A1.822,1.822,0,0,0,468.728,348.657Z" transform="translate(-351.214 -259.747)"/>
    <path id="Path_188" data-name="Path 188" d="M436.57,462.229a13.793,13.793,0,0,1-1.828.129l-.343,0a1.833,1.833,0,0,0,.009,3.666h.009l.342,0a17.5,17.5,0,0,0,2.313-.164,1.833,1.833,0,0,0-.5-3.632Z" transform="translate(-326.79 -349.367)"/>
    <path id="Path_189" data-name="Path 189" d="M472.36,445.757a13.828,13.828,0,0,1-1.655,1.348,1.833,1.833,0,1,0,2.089,3.013,17.523,17.523,0,0,0,2.095-1.707,1.833,1.833,0,0,0-2.529-2.655Z" transform="translate(-355.015 -336.547)"/>
    <path id="Path_190" data-name="Path 190" d="M496.47,411.018a1.834,1.834,0,0,0-2.14,1.462,13.736,13.736,0,0,1-.557,2.058,1.833,1.833,0,1,0,3.453,1.231,17.39,17.39,0,0,0,.706-2.61A1.833,1.833,0,0,0,496.47,411.018Z" transform="translate(-372.967 -310.647)"/>
    <path id="Path_191" data-name="Path 191" d="M492.47,372.437a1.833,1.833,0,0,0-.886,2.436,13.631,13.631,0,0,1,.747,2,1.833,1.833,0,1,0,3.523-1.011,17.318,17.318,0,0,0-.949-2.535A1.833,1.833,0,0,0,492.47,372.437Z" transform="translate(-371.262 -281.38)"/>
    <path id="Path_192" data-name="Path 192" d="M391.228,339.155a1.833,1.833,0,1,0,0-3.666h-2.421a1.833,1.833,0,1,0,0,3.666Z" transform="translate(-292.322 -253.582)"/>
    <path id="Path_193" data-name="Path 193" d="M357.5,463.134h-.009l-2.421.011a1.833,1.833,0,0,0,.008,3.666h.009l2.421-.011a1.833,1.833,0,0,0-.008-3.666Z" transform="translate(-266.826 -350.064)"/>
    <path id="Path_194" data-name="Path 194" d="M430.194,339.157q.311,0,.618.014l.083,0a1.833,1.833,0,0,0,.08-3.664c-.259-.012-.522-.017-.78-.017h-1.721a1.833,1.833,0,1,0,0,3.666Z" transform="translate(-322.304 -253.584)"/>
    <path id="Path_195" data-name="Path 195" d="M397.161,462.955h-.009l-2.421.011a1.833,1.833,0,0,0,.008,3.666h.009l2.421-.011a1.833,1.833,0,0,0-.008-3.666Z" transform="translate(-296.807 -349.929)"/>
  </g>
</svg>
