<svg xmlns="http://www.w3.org/2000/svg" width="132.432" height="128.095" viewBox="0 0 132.432 128.095">
  <g id="suitcase_1_" data-name="suitcase (1)" transform="matrix(0.951, -0.309, 0.309, 0.951, 0, 32.989)">
    <path id="Path_91" data-name="Path 91" d="M200.8,32.155h-7.7V18.016a2.815,2.815,0,0,0-2.812-2.812H171.83a2.815,2.815,0,0,0-2.812,2.812V32.155h-7.7V18.016A10.528,10.528,0,0,1,171.83,7.5h18.453A10.528,10.528,0,0,1,200.8,18.016Zm0,0" transform="translate(-127.678 -5.936)" fill="#5d5360"/>
    <path id="Path_92" data-name="Path 92" d="M161.313,75.16h7.7V85.708h-7.7Zm0,0" transform="translate(-127.678 -59.489)" fill="#4b3f4e"/>
    <path id="Path_93" data-name="Path 93" d="M313.738,75.16h7.7V85.708h-7.7Zm0,0" transform="translate(-248.322 -59.489)" fill="#4b3f4e"/>
    <path id="Path_94" data-name="Path 94" d="M104.724,105.16H13.9a6.4,6.4,0,0,0-6.4,6.4v60.442a6.4,6.4,0,0,0,6.4,6.4h90.819a6.4,6.4,0,0,0,6.4-6.4V111.563A6.4,6.4,0,0,0,104.724,105.16Zm0,0" transform="translate(-5.936 -83.233)" fill="#f55d67"/>
    <path id="Path_95" data-name="Path 95" d="M13.755,172.005V111.564a6.4,6.4,0,0,1,6.4-6.4H13.9a6.4,6.4,0,0,0-6.4,6.4v60.442a6.4,6.4,0,0,0,6.4,6.4h6.255A6.4,6.4,0,0,1,13.755,172.005Zm0,0" transform="translate(-5.936 -83.234)" fill="#ff3d5d"/>
    <path id="Path_96" data-name="Path 96" d="M73.339,89.52H68.623a2.693,2.693,0,0,0-2.693,2.693V166.6a2.693,2.693,0,0,0,2.693,2.693h4.716a2.694,2.694,0,0,0,2.693-2.693V92.213A2.694,2.694,0,0,0,73.339,89.52Zm0,0" transform="translate(-52.183 -70.854)" fill="#ffe176"/>
    <path id="Path_97" data-name="Path 97" d="M65.93,175.613h10.1v10.6H65.93Zm0,0" transform="translate(-52.183 -138.997)" fill="#ffc261"/>
    <path id="Path_98" data-name="Path 98" d="M65.351,155.613H53.991a2.351,2.351,0,0,0-2.351,2.351v3.816a2.35,2.35,0,0,0,2.351,2.351h11.36A2.351,2.351,0,0,0,67.7,161.78v-3.816A2.351,2.351,0,0,0,65.351,155.613Zm0,0" transform="translate(-40.873 -123.167)" fill="#5d5360"/>
    <path id="Path_99" data-name="Path 99" d="M400.31,89.52h4.716a2.693,2.693,0,0,1,2.693,2.693V166.6a2.693,2.693,0,0,1-2.693,2.693H400.31a2.694,2.694,0,0,1-2.693-2.693V92.213A2.694,2.694,0,0,1,400.31,89.52Zm0,0" transform="translate(-314.711 -70.854)" fill="#ffe176"/>
    <path id="Path_100" data-name="Path 100" d="M397.617,175.613h10.1v10.6h-10.1Zm0,0" transform="translate(-314.711 -138.997)" fill="#ffc261"/>
    <path id="Path_101" data-name="Path 101" d="M385.679,155.613h11.36a2.351,2.351,0,0,1,2.351,2.351v3.816a2.35,2.35,0,0,1-2.351,2.351h-11.36a2.351,2.351,0,0,1-2.351-2.351v-3.816A2.351,2.351,0,0,1,385.679,155.613Zm0,0" transform="translate(-303.402 -123.167)" fill="#5d5360"/>
    <path id="Path_102" data-name="Path 102" d="M245.129,138.424l-1.553-5.679a4.278,4.278,0,0,0-3-3l-5.679-1.553a4.277,4.277,0,0,0-4.151,1.1L220.16,139.884a4.276,4.276,0,0,0,0,6.047l7.233,7.233a4.276,4.276,0,0,0,6.047,0l10.588-10.588a4.277,4.277,0,0,0,1.1-4.151Zm0,0" transform="translate(-173.264 -101.345)" fill="#eceaec"/>
    <path id="Path_103" data-name="Path 103" d="M293.49,160.26a2.985,2.985,0,1,1-2.985-2.986A2.985,2.985,0,0,1,293.49,160.26Zm0,0" transform="translate(-227.57 -124.481)" fill="#f55d67"/>
    <path id="Path_107" data-name="Path 107" d="M284.569,149.773a4.549,4.549,0,1,0,0,9.1,4.518,4.518,0,0,0,3.216-1.332A4.592,4.592,0,0,0,284.569,149.773Zm1.005,5.555a1.411,1.411,0,0,1-1.005.416,1.422,1.422,0,1,1,1.005-.416Zm0,0" transform="translate(-221.634 -118.544)"/>
    <path id="Path_108" data-name="Path 108" d="M62.6,0H44.151a12.094,12.094,0,0,0-12.08,12.08v8.282h-6.78A4.262,4.262,0,0,0,21.156,17.1H16.44a4.262,4.262,0,0,0-4.135,3.261H7.968A7.977,7.977,0,0,0,0,28.33V88.772A7.977,7.977,0,0,0,7.968,96.74h4.337A4.262,4.262,0,0,0,16.44,100h4.716a4.261,4.261,0,0,0,4.134-3.26H81.465A4.261,4.261,0,0,0,85.6,100h4.716a4.262,4.262,0,0,0,4.135-3.26h4.337a7.977,7.977,0,0,0,7.968-7.968V28.33a7.977,7.977,0,0,0-7.968-7.967H94.45A4.262,4.262,0,0,0,90.315,17.1H85.6a4.261,4.261,0,0,0-4.134,3.261H74.684V12.08A12.094,12.094,0,0,0,62.6,0ZM35.2,12.08a8.963,8.963,0,0,1,8.953-8.953H62.6a8.963,8.963,0,0,1,8.953,8.953v8.282H66.98V12.08A4.381,4.381,0,0,0,62.6,7.7H44.151a4.38,4.38,0,0,0-4.375,4.375v8.282H35.2Zm7.7,8.282V12.08a1.25,1.25,0,0,1,1.249-1.248H62.6a1.249,1.249,0,0,1,1.248,1.248v8.282ZM25.265,34.8v3.816a.8.8,0,0,1-.787.787H13.118a.787.787,0,0,1-.787-.787V34.8a.8.8,0,0,1,.787-.788h11.36A.788.788,0,0,1,25.265,34.8ZM15.311,21.359a1.131,1.131,0,0,1,1.13-1.13h4.716a1.131,1.131,0,0,1,1.13,1.13v9.524H15.311Zm6.975,74.384a1.131,1.131,0,0,1-1.13,1.13H16.44a1.131,1.131,0,0,1-1.13-1.13V59.375a1.564,1.564,0,0,0-3.128,0V93.612H7.968a4.846,4.846,0,0,1-4.84-4.84V28.33a4.846,4.846,0,0,1,4.84-4.84h4.215V31A4.013,4.013,0,0,0,9.2,34.784v3.843a4,4,0,0,0,2.979,3.788v10.7a1.564,1.564,0,0,0,3.128,0V42.528h6.975ZM81.557,38.917a.747.747,0,0,1-.067-.3V34.8a.788.788,0,0,1,.787-.787h11.36a.788.788,0,0,1,.787.787v3.817a.794.794,0,0,1-.787.787H82.277A.816.816,0,0,1,81.557,38.917ZM103.628,28.33V88.772a4.846,4.846,0,0,1-4.84,4.84H94.572V85.437a1.564,1.564,0,0,0-3.128,0V95.743a1.131,1.131,0,0,1-1.13,1.13H85.6a1.131,1.131,0,0,1-1.13-1.13V42.528h6.976V79.182a1.564,1.564,0,0,0,3.128,0V42.415c.047-.011.092-.027.138-.04a3.992,3.992,0,0,0,2.841-3.761V34.8A4.017,4.017,0,0,0,95,31.132,3.843,3.843,0,0,0,94.573,31V23.49h4.214a4.847,4.847,0,0,1,4.84,4.84ZM84.47,21.359a1.131,1.131,0,0,1,1.13-1.13h4.716a1.131,1.131,0,0,1,1.13,1.13v9.524H84.47ZM81.342,31c-.048.012-.1.028-.143.042a4,4,0,0,0-2.837,3.76v3.816a4.008,4.008,0,0,0,2.979,3.8v51.2H25.414v-51.2c0,.007.79-.289.868-.331a4.012,4.012,0,0,0,2.111-3.471V34.8A4.016,4.016,0,0,0,25.414,31V23.49h47.6l-3.956,3.955c-.415-.235-7.009-2.1-7.009-2.1a5.86,5.86,0,0,0-5.67,1.5L45.79,37.433a5.846,5.846,0,0,0,0,8.258l7.233,7.233a5.894,5.894,0,0,0,8.258,0L71.87,42.335a5.853,5.853,0,0,0,1.5-5.67s-1.869-6.594-2.1-7.009l6.166-6.167h3.907ZM68.8,31.811l1.553,5.679a2.718,2.718,0,0,1-.7,2.633L59.069,50.712a2.736,2.736,0,0,1-3.835,0L48,43.479a2.715,2.715,0,0,1,0-3.835L58.59,29.056a2.734,2.734,0,0,1,2.633-.7L66.9,29.911a2.725,2.725,0,0,1,1.9,1.9Zm0,0"/>
  </g>
</svg>
