<svg xmlns="http://www.w3.org/2000/svg" width="130.22" height="125" viewBox="0 0 130.22 125">
  <g id="XMLID_806_" transform="translate(0 -10.262)">
    <g id="XMLID_1434_" transform="translate(30.012 12.805)">
      <rect id="XMLID_1457_" width="17.4" height="10.04" transform="translate(40.094 12.208)" fill="#d5f5fb"/>
      <path id="XMLID_1456_" d="M255.952,32.47h18.312a6.1,6.1,0,0,0,6.1-6.1h0a6.1,6.1,0,0,0-6.1-6.1H255.952a6.1,6.1,0,0,0-6.1,6.1h0A6.1,6.1,0,0,0,255.952,32.47Z" transform="translate(-216.314 -20.262)" fill="#ff7480"/>
      <circle id="XMLID_1452_" cx="48.833" cy="48.833" r="48.833" transform="translate(0 22.249)" fill="#5ddef5"/>
      <circle id="XMLID_2618_" cx="36.912" cy="36.912" r="36.912" transform="translate(11.921 34.17)" fill="#fff"/>
      <circle id="XMLID_2592_" cx="5.36" cy="5.36" r="5.36" transform="translate(43.473 65.722)" fill="#ff838e"/>
    </g>
    <g id="XMLID_386_" transform="translate(0 10.262)">
      <path id="XMLID_389_" d="M129.969,78.777A51.335,51.335,0,0,0,90.05,33.763V27.3a8.647,8.647,0,0,0-2.087-17.039H69.65A8.647,8.647,0,0,0,67.563,27.3v6.48A51.069,51.069,0,0,0,42.517,47.559a51.622,51.622,0,0,0-4.318,4.9c-.064,0-.128-.01-.193-.01H19.881a2.543,2.543,0,1,0,0,5.087H34.737a50.987,50.987,0,0,0-4.513,9.776H2.543a2.543,2.543,0,0,0,0,5.087H28.787a51.713,51.713,0,0,0-1.262,9.776H16.278a2.543,2.543,0,0,0,0,5.087H27.606a51.637,51.637,0,0,0,1.588,9.776H12.717a2.543,2.543,0,0,0,0,5.087h18.1a51.37,51.37,0,0,0,42.949,32.889q2.52.249,5.041.248a51.5,51.5,0,0,0,28.038-8.287,2.543,2.543,0,1,0-2.776-4.263A46.289,46.289,0,1,1,117.7,109.062a2.543,2.543,0,1,0,4.266,2.77A51.54,51.54,0,0,0,129.969,78.777ZM66.09,18.91a3.565,3.565,0,0,1,3.561-3.561H87.963a3.561,3.561,0,0,1,0,7.121H69.65A3.565,3.565,0,0,1,66.09,18.91Zm6.56,14v-5.35H84.963V32.9A51.823,51.823,0,0,0,72.65,32.907Z" transform="translate(0 -10.262)"/>
      <path id="XMLID_391_" d="M438.313,425.5a2.544,2.544,0,1,0,1.8.745A2.557,2.557,0,0,0,438.313,425.5Z" transform="translate(-324.937 -319.889)"/>
      <path id="XMLID_394_" d="M194.327,144.609a39.455,39.455,0,1,0,39.455,39.455A39.5,39.5,0,0,0,194.327,144.609Zm0,73.824A34.369,34.369,0,1,1,228.7,184.064,34.407,34.407,0,0,1,194.327,218.433Z" transform="translate(-115.482 -110.439)"/>
      <path id="XMLID_397_" d="M286.6,220.156l-12.6,12.6a7.883,7.883,0,0,0-6.982,0l-5.638-5.638a2.543,2.543,0,0,0-3.6,3.6l5.638,5.638a7.9,7.9,0,1,0,14.176,0l12.228-12.228h0l.37-.37a2.543,2.543,0,0,0-3.6-3.6Zm-16.088,22.5a2.817,2.817,0,1,1,2.817-2.817A2.82,2.82,0,0,1,270.507,242.658Z" transform="translate(-191.662 -166.216)"/>
      <path id="XMLID_398_" d="M402.555,289.86H400.2a2.543,2.543,0,1,0,0,5.087h2.356a2.543,2.543,0,0,0,0-5.087Z" transform="translate(-296.516 -218.747)"/>
      <path id="XMLID_399_" d="M197.982,289.616h-2.356a2.543,2.543,0,1,0,0,5.087h2.356a2.543,2.543,0,1,0,0-5.087Z" transform="translate(-143.974 -218.565)"/>
      <path id="XMLID_400_" d="M302.666,190.262a2.543,2.543,0,0,0,2.543-2.543v-2.356a2.543,2.543,0,1,0-5.087,0v2.356A2.544,2.544,0,0,0,302.666,190.262Z" transform="translate(-223.79 -138.931)"/>
      <path id="XMLID_424_" d="M302.422,387.393a2.544,2.544,0,0,0-2.543,2.543v2.356a2.543,2.543,0,0,0,5.087,0v-2.356A2.544,2.544,0,0,0,302.422,387.393Z" transform="translate(-223.608 -291.474)"/>
      <path id="XMLID_425_" d="M2.543,351.44a2.543,2.543,0,1,0,1.8,4.342,2.543,2.543,0,0,0-1.8-4.342Z" transform="translate(0 -264.665)"/>
    </g>
  </g>
</svg>
